Coordinates
version=1
nRows=11
nColumns=40
inDegrees=yes

Units are S.I. units (second, meters, Newtons, ...)
Angles are in degrees.

endheader
time	pelvis_tilt	pelvis_list	pelvis_rotation	pelvis_tx	pelvis_ty	pelvis_tz	hip_flexion_r	hip_adduction_r	hip_rotation_r	knee_angle_r	knee_angle_r_beta	ankle_angle_r	subtalar_angle_r	mtp_angle_r	hip_flexion_l	hip_adduction_l	hip_rotation_l	knee_angle_l	knee_angle_l_beta	ankle_angle_l	subtalar_angle_l	mtp_angle_l	lumbar_extension	lumbar_bending	lumbar_rotation	arm_flex_r	arm_add_r	arm_rot_r	elbow_flex_r	pro_sup_r	wrist_flex_r	wrist_dev_r	arm_flex_l	arm_add_l	arm_rot_l	elbow_flex_l	pro_sup_l	wrist_flex_l	wrist_dev_l
      1.99000000	     -2.56370123	     -2.02420559	      3.71563149	      0.48879345	      0.89025422	      1.09270082	      9.20643845	      4.47626430	    -12.84539524	    -22.74500826	     -0.39697528	     11.34407559	     -3.79336967	      4.54469408	     28.64258141	      5.46845493	      6.97038429	    -49.89115927	     -0.87076500	     13.09304213	     18.95024424	     19.37088484	     -4.08980197	      2.34218500	     -1.49165207	      1.01969740	    -10.90360111	    -17.02635709	     30.96937964	     89.95437384	      0.00000000	      0.00000000	     -4.24129477	      7.67170474	     20.71889128	     28.13851845	     89.95437384	      0.00000000	      0.00000000
      2.00000000	     -2.74675920	     -2.00984395	      3.67020597	      0.49505969	      0.88984972	      1.09288779	      8.87227260	      4.51771182	    -12.84253816	    -22.59632864	     -0.39438033	     11.56807707	     -3.72624990	      4.39053298	     29.33172982	      5.33246488	      7.32305668	    -48.19613399	     -0.84118122	     13.15112577	     18.82169020	     19.38458241	     -3.97327336	      2.28704679	     -1.34898407	      1.19055657	    -11.05386414	    -17.02559135	     31.44124081	     89.95437384	      0.00000000	      0.00000000	     -4.53424635	      7.57830006	     20.74719845	     28.09980999	     89.95437384	      0.00000000	      0.00000000
      2.01000000	     -2.75280732	     -1.81744758	      3.55586081	      0.50155466	      0.88977948	      1.09299885	      8.31598016	      4.36098435	    -12.71664088	    -22.46362631	     -0.39206424	     11.80646012	     -3.58377561	      4.17693651	     29.70577903	      5.09077719	      7.94063732	    -46.36619863	     -0.80924283	     12.84355577	     18.74782580	     19.44881388	     -4.05501013	      2.06061631	     -1.12860737	      1.32988401	    -11.16424066	    -17.01816734	     31.97767324	     89.95437384	      0.00000000	      0.00000000	     -4.67902584	      7.49490291	     20.85080251	     27.83095696	     89.95437384	      0.00000000	      0.00000000
      2.02000000	     -2.91764755	     -1.99276204	      3.60748401	      0.50775051	      0.88915726	      1.09314989	      8.02443165	      4.57307163	    -12.98467250	    -22.41176009	     -0.39115900	     12.00969313	     -3.60165217	      4.08580492	     30.50813118	      5.23160036	      8.43548941	    -44.93277131	     -0.78422480	     12.73458905	     18.66457215	     19.34470816	     -3.92421705	      2.19190483	     -1.13878683	      1.58768230	    -11.29678669	    -17.00390419	     32.35048412	     89.95437384	      0.00000000	      0.00000000	     -4.96939938	      7.43193514	     20.81798621	     27.75360647	     89.95437384	      0.00000000	      0.00000000
      2.03000000	     -2.99849714	     -1.72922936	      3.36642266	      0.51446949	      0.88906076	      1.09312517	      7.50507626	      4.32633624	    -12.73035119	    -22.22906748	     -0.38797042	     12.30431461	     -3.34342430	      3.86709396	     30.72546672	      4.83939663	      8.91649194	    -42.83441661	     -0.74760160	     11.88356094	     18.33517010	     19.22875685	     -3.90300171	      1.87322671	     -0.75575509	      1.61585907	    -11.44472168	    -16.82261187	     32.84193870	     89.95437384	      0.00000000	      0.00000000	     -5.14139065	      7.30788574	     21.00522108	     27.58718329	     89.95437384	      0.00000000	      0.00000000
      2.04000000	     -2.92459511	     -1.51813612	      3.32791306	      0.52087918	      0.88901197	      1.09298296	      6.86213637	      4.10847037	    -12.68754139	    -22.11323190	     -0.38594870	     12.60110736	     -3.05929756	      3.60474102	     30.93309892	      4.54712998	      9.48238137	    -41.01185811	     -0.71579196	     11.02009662	     18.25119707	     19.08251915	     -4.09143570	      1.61138504	     -0.64758634	      1.80862157	    -11.58387398	    -16.70979560	     33.30397144	     89.95437384	      0.00000000	      0.00000000	     -5.19783624	      7.24957909	     21.17947915	     27.25346434	     89.95437384	      0.00000000	      0.00000000
      2.05000000	     -3.07472604	     -1.55303343	      3.28803525	      0.52723894	      0.88849448	      1.09293520	      6.51454006	      4.13069956	    -12.83546074	    -22.02916924	     -0.38448153	     12.78022130	     -2.85254745	      3.40164808	     31.43534037	      4.50717953	      9.95091868	    -39.29524734	     -0.68583145	     10.30798136	     17.93120032	     18.86874590	     -3.99447329	      1.60524625	     -0.51879577	      1.96293118	    -11.71559782	    -16.65651613	     33.68929097	     89.95437384	      0.00000000	      0.00000000	     -5.35139708	      7.16786110	     21.29779192	     27.10045159	     89.95437384	      0.00000000	      0.00000000
      2.06000000	     -2.98633962	     -1.36257338	      3.21962098	      0.53392127	      0.88836020	      1.09269525	      5.84047716	      3.86812579	    -13.10045148	    -21.91969394	     -0.38257083	     12.96068646	     -2.21591776	      2.94352055	     31.50176911	      4.27728876	     10.68350697	    -37.45398403	     -0.65369534	      9.50693437	     17.74583745	     18.25607419	     -4.15173374	      1.34977374	     -0.39257533	      2.14713025	    -11.77921783	    -16.68498315	     34.00699828	     89.95437384	      0.00000000	      0.00000000	     -5.48806910	      7.08043342	     21.53530078	     26.90953396	     89.95437384	      0.00000000	      0.00000000
      2.07000000	     -3.27139642	     -1.45619821	      3.18802815	      0.54036385	      0.88751049	      1.09258116	      5.64380476	      3.94987773	    -13.20477800	    -21.82481736	     -0.38091492	     13.10454269	     -2.03744235	      2.76136035	     32.12512948	      4.30283770	     11.14221985	    -35.87050977	     -0.62605850	      9.16474002	     17.34511993	     17.94608403	     -3.85951873	      1.40953937	     -0.28395852	      2.22326147	    -11.88769696	    -16.60429059	     34.41025020	     89.95437384	      0.00000000	      0.00000000	     -5.63260917	      7.00175184	     21.57284882	     26.68443919	     89.95437384	      0.00000000	      0.00000000
      2.08000000	     -3.50212462	     -1.56917428	      3.12006507	      0.54695343	      0.88668786	      1.09250057	      5.39215140	      4.05447645	    -13.33215598	    -21.79422971	     -0.38038107	     13.28708727	     -1.91560898	      2.60269297	     32.64355956	      4.37823270	     11.62842081	    -34.35023339	     -0.59952467	      8.93570317	     16.91133394	     17.66379193	     -3.62676095	      1.44913794	     -0.14411054	      2.31623285	    -11.98921053	    -16.53139159	     34.72205742	     89.95437384	      0.00000000	      0.00000000	     -5.90822127	      6.93672355	     21.63988494	     26.72121800	     89.95437384	      0.00000000	      0.00000000
      2.09000000	     -3.37287834	     -1.34165065	      3.03269011	      0.55370948	      0.88655307	      1.09204531	      4.68485874	      3.71631913	    -13.50996868	    -21.74513076	     -0.37952413	     13.56773973	     -1.09722740	      1.80369201	     32.53408200	      4.13797910	     12.42412829	    -32.58479535	     -0.56871197	      8.50350713	     16.31969729	     16.23270760	     -3.83114176	      1.16900746	     -0.05612056	      2.50430335	    -12.05096557	    -16.47945273	     35.01532729	     89.95437384	      0.00000000	      0.00000000	     -5.98711522	      6.83513406	     22.01030854	     26.51709770	     89.95437384	      0.00000000	      0.00000000
